<?xml version="1.0" ?><!DOCTYPE svg  PUBLIC '-//W3C//DTD SVG 1.1//EN'  'http://www.w3.org/Graphics/SVG/1.1/DTD/svg11.dtd'><svg enable-background="new 0 0 64 64" height="64px" id="Layer_1" version="1.1" viewBox="0 0 64 64" width="64px" xml:space="preserve" xmlns="http://www.w3.org/2000/svg" xmlns:xlink="http://www.w3.org/1999/xlink"><g><g><g><path clip-rule="evenodd" d="M63,32c0-10.1-8.2-18.4-18.4-18.4c-4.4,0-8.4,1.5-11.6,4.1     c2.4,2.3,4.3,5.2,5.2,8.5h-1.5c-1-2.9-2.6-5.5-4.8-7.6c-2.2,2.1-3.8,4.7-4.8,7.6h-1.5c1-3.3,2.8-6.2,5.2-8.5     c-3.2-2.6-7.1-4.1-11.5-4.1C9.2,13.6,1,21.9,1,32c0,10.1,8.2,18.4,18.4,18.4c4.4,0,8.4-1.6,11.5-4.1c-2.4-2.3-4.2-5.2-5.2-8.5     h1.5c1,2.9,2.6,5.5,4.8,7.6c2.2-2.1,3.9-4.7,4.8-7.6h1.5c-1,3.3-2.8,6.2-5.2,8.5c3.2,2.6,7.2,4.1,11.6,4.1     C54.8,50.4,63,42.1,63,32" fill="#E52836" fill-rule="evenodd"/></g><g><path clip-rule="evenodd" d="M49.5,36.3l1.3-6.8h1.6l0.2,0.7c0.3-0.3,0.8-0.7,1.8-0.7     l-0.5,1.8c-0.5,0-1.3-0.1-1.9,1.9l-0.6,3.1H49.5" fill="#FFFFFF" fill-rule="evenodd"/></g><g><path clip-rule="evenodd" d="M25,27.8h1.8l-0.4,1.8h1L27.1,31h-0.9l-0.5,2.7     c-0.1,0.5,0,1,1,0.8L26.5,36c-0.4,0.3-0.9,0.3-1.4,0.3c-0.4,0-1.8-0.3-1.5-2.1L25,27.8" fill="#FFFFFF" fill-rule="evenodd"/></g><g><path clip-rule="evenodd" d="M33,33.3c0.2-1.1,0.7-3.8-2.5-3.8c-3,0-3.4,3-3.4,3.4     c-0.1,0.4-0.1,3.4,3.1,3.4c0.8,0,1.9-0.1,2.4-0.3l0.3-1.4c-0.3,0.1-1.3,0.2-2.1,0.2c-0.7,0-1.9,0-1.7-1.5H33" fill="#FFFFFF" fill-rule="evenodd"/></g><g><path clip-rule="evenodd" d="M23.2,31.1l0.4-1.4c-0.9-0.3-1.6-0.3-1.8-0.3     c-0.3,0-2.5,0-2.8,1.6c-0.3,1.3,0.2,1.8,0.6,2c0.7,0.3,1.1,0.6,1.5,0.8c0.5,0.2,0.4,1-0.2,1c-0.3,0-1.5,0.1-2.4-0.2l-0.3,1.4     c0.9,0.2,1.5,0.2,2.2,0.2c0.5,0,2.7,0.1,3-1.9c0.2-1-0.3-1.4-0.6-1.7c-0.4-0.2-0.9-0.6-1.3-0.7c-0.4-0.2-0.7-0.8,0-1     C21.8,31,22.7,31,23.2,31.1" fill="#FFFFFF" fill-rule="evenodd"/></g><g><polyline clip-rule="evenodd" fill="#FFFFFF" fill-rule="evenodd" points="11.2,36.3 12.8,28.1 9.7,28.1 7.5,33.1 7.1,28.1      4.2,28.1 2.6,36.3 4.4,36.3 5.6,30.4 6.1,36.3 7.8,36.3 10.4,30.5 9.3,36.3 11.2,36.3    "/></g><g><path clip-rule="evenodd" d="M13.3,29.7L13,31.2c0.5,0,1.7-0.2,2.3-0.2     c0.6,0,1.4-0.1,1.1,0.9c-0.5,0-3.8-0.5-4.3,2.4c-0.2,1.4,1,2.1,1.9,2.1c0.9,0,1.2-0.2,1.5-0.4l0.2,0.4h1.7l0.7-3.7     c0.2-0.9,0.5-3.1-2.6-3.1C15.1,29.5,14.5,29.5,13.3,29.7" fill="#FFFFFF" fill-rule="evenodd"/></g><g><path clip-rule="evenodd" d="M43.2,30c-0.5-0.3-0.8-0.3-1.4-0.3c-0.6,0-2,0.6-2.2,2.2     c-0.3,2,1,2.9,2.9,2.3l0.5,1.7c-0.6,0.3-1.2,0.4-2.2,0.4c-1.9,0-4-1.7-3.1-5.2c0.7-2.5,2.9-3.5,4.2-3.4c1.5,0.1,2.1,0.6,2.5,1.1     L43.2,30" fill="#FFFFFF" fill-rule="evenodd"/></g><g><path clip-rule="evenodd" d="M58.9,30.3c-0.4-0.3-0.6-0.8-1.4-0.8c-1,0-2.6-0.2-3.5,2.9     c-0.6,2.1,0.6,3.9,1.9,3.9c0.6,0,1.2-0.3,1.6-0.5l0.2,0.5h2l1.6-8.6h-1.9L58.9,30.3" fill="#FFFFFF" fill-rule="evenodd"/></g><g><path clip-rule="evenodd" d="M44.5,29.7l-0.3,1.5c0.5,0,1.7-0.2,2.3-0.2     c0.6,0,1.3-0.1,1.1,0.9c-0.5,0-3.8-0.5-4.3,2.4c-0.2,1.4,1,2.1,1.9,2.1c0.9,0,1.2-0.2,1.5-0.4l0.2,0.4h1.7l0.7-3.7     c0.2-0.9,0.5-3.1-2.6-3.1C46.4,29.5,45.7,29.5,44.5,29.7" fill="#FFFFFF" fill-rule="evenodd"/></g><g><path clip-rule="evenodd" d="M29.1,32h2.3c0.1-0.7-0.1-1.2-0.8-1.2     C29.8,30.8,29.3,31.2,29.1,32" fill="#E52836" fill-rule="evenodd"/></g><g><path clip-rule="evenodd" d="M16.1,33.3c-0.3,0-1-0.2-1.6,0.2c-0.6,0.4-0.8,1.1-0.1,1.3     C15,35,15.8,34.6,16,34L16.1,33.3" fill="#E52836" fill-rule="evenodd"/></g><g><path clip-rule="evenodd" d="M58.3,33.1c0.2-0.6,0.1-1.4-0.1-1.7c-0.6-0.8-1.9-0.2-2.3,1.3     c-0.3,1,0.3,1.7,0.9,1.7C57.5,34.4,57.9,33.9,58.3,33.1" fill="#E52836" fill-rule="evenodd"/></g><g><path clip-rule="evenodd" d="M47.4,33.3c-0.3,0-1-0.2-1.6,0.2c-0.6,0.4-0.8,1.1-0.1,1.3     c0.6,0.2,1.5-0.2,1.6-0.8L47.4,33.3" fill="#E52836" fill-rule="evenodd"/></g><g><path clip-rule="evenodd" d="M33,36.3l1.3-6.7h1.6l0.2,0.7c0.3-0.3,0.8-0.7,1.8-0.7l-0.5,1.8     c-0.4,0-1.3-0.1-1.9,1.9l-0.6,3.1H33" fill="#FFFFFF" fill-rule="evenodd"/></g></g><g><g><path clip-rule="evenodd" d="M19.4,13.6c-8.1,0-15,5.3-17.4,12.6h23.8c1-3.3,2.8-6.2,5.2-8.5     C27.7,15.2,23.7,13.6,19.4,13.6z" fill="#F7142F" fill-rule="evenodd"/></g><g><path clip-rule="evenodd" d="M32,18.7c-2.2,2.1-3.8,4.6-4.8,7.6h9.6     C35.8,23.4,34.2,20.8,32,18.7z" fill="#F7142F" fill-rule="evenodd"/></g><g><path clip-rule="evenodd" d="M44.6,13.6c-4.4,0-8.4,1.5-11.6,4.1c2.4,2.3,4.2,5.2,5.2,8.5     h23.8C59.7,18.9,52.8,13.6,44.6,13.6z" fill="#F7142F" fill-rule="evenodd"/></g></g></g></svg>